<?xml version="1.0" encoding="UTF-8"?>
<!DOCTYPE svg PUBLIC "-//W3C//DTD SVG 1.1//EN" "http://www.w3.org/Graphics/SVG/1.1/DTD/svg11.dtd">
<svg version="1.1" id="Layer_1"
  xmlns="http://www.w3.org/2000/svg"
  xmlns:xlink="http://www.w3.org/1999/xlink" viewBox="0 0 21 21" xml:space="preserve">
  <g id="icon">
    <circle cx="10.5" cy="10.5" r="10" fill="none" stroke="#fff" stroke-width="1" stroke-linecap="round" stroke-miterlimit="10" stroke-linejoin="round"/>
    <path d="M8.5483,15.7513c0.0034,0.6692,0.0109,1.6183,0.0109,1.8092" fill="none" stroke="#fff" stroke-width="1" stroke-linecap="round" stroke-miterlimit="10" stroke-linejoin="round"/>
    <path d="M12.5297,17.5168c0,-0.2517,0.0089,-1.6461,0.0089,-2.6686c0,-0.7129,-0.2442,-1.178,-0.5183,-1.4152c1.7017,-0.1892,3.4895,-0.8355,3.4895,-3.7707c0,-0.8344,-0.2965,-1.5161,-0.7865,-2.0512c0.0794,-0.1925,0.341,-0.9698,-0.0749,-2.0224c0,0,-0.6408,-0.2054,-2.0995,0.7834c-0.6107,-0.1694,-1.365,-0.2542,-2.0145,-0.2571c-0.6495,0.0029,-1.4032,0.0877,-2.0128,0.2571c-1.4604,-0.9888,-2.1021,-0.7834,-2.1021,-0.7834c-0.4149,1.0527,-0.1534,1.8299,-0.074,2.0224c-0.4889,0.5352,-0.7874,1.2169,-0.7874,2.0512c0,2.9282,1.7844,3.5835,3.4818,3.7768c-0.2185,0.1908,-0.3166,1.5795,-0.3852,2.0735c-0.4361,0.1952,-1.5423,0.533,-2.2239,-0.6353c0,0,-0.4041,-0.7336,-1.1715,-0.7876" fill="none" stroke="#fff" stroke-width="1" stroke-linecap="round" stroke-miterlimit="10" stroke-linejoin="round"/>
  </g>
</svg>
